<svg version="1.1" id="Layer_1" xmlns="http://www.w3.org/2000/svg" xmlns:xlink="http://www.w3.org/1999/xlink" x="0px" y="0px"
	 width="100%" viewBox="0 0 368 496" enable-background="new 0 0 368 496" xml:space="preserve">
<path fill="#000000" opacity="1.000000" stroke="none" 
	d="
M280.076324,170.930710 
	C281.188538,170.825806 282.208588,169.920151 283.761658,170.709732 
	C282.933594,175.392746 280.000763,178.998703 277.145813,182.567734 
	C271.592682,189.509842 264.890961,195.260513 257.717529,200.449814 
	C255.332901,202.174850 253.613480,204.189621 252.606094,206.989380 
	C248.830383,217.483032 244.928619,227.931305 241.092361,238.403259 
	C240.423126,240.230133 239.173050,242.229462 241.717331,243.619431 
	C244.016541,244.875534 245.447906,243.471771 246.716583,241.745560 
	C252.728043,233.566086 259.298950,225.775101 264.057220,216.726669 
	C264.840607,215.236938 265.646545,213.893005 267.605530,213.578812 
	C272.202667,212.841568 276.803528,212.068527 281.337402,211.025284 
	C283.078674,210.624588 283.882111,211.964081 285.185150,212.390244 
	C289.332458,207.105865 294.587250,203.307205 300.258423,200.077957 
	C306.234802,196.674896 305.729218,203.536850 308.118744,205.532776 
	C310.559204,207.571274 308.101501,209.206711 306.031799,210.217499 
	C300.826630,212.759552 295.623169,215.305206 290.433044,217.842560 
	C293.267242,218.478271 295.526581,215.503342 299.222900,216.549576 
	C295.847351,222.493103 291.110291,226.822876 284.975220,228.047775 
	C267.939636,231.448975 263.889709,243.971390 261.177246,258.549500 
	C256.905914,281.506195 251.207291,304.097809 238.226974,324.067566 
	C235.087692,328.897278 231.209290,332.896179 226.057846,335.643616 
	C221.809784,337.909302 219.694855,341.774536 218.487167,346.313354 
	C215.270966,358.400452 217.072403,370.441925 218.884720,382.435211 
	C220.299103,391.795166 222.334061,401.052155 224.978363,410.161530 
	C225.288559,411.230133 225.219177,412.408936 225.425751,414.594299 
	C218.700928,412.460114 212.673874,409.185516 205.932724,410.387024 
	C199.351105,411.560089 193.979797,415.131134 188.713898,419.662506 
	C185.262024,415.588074 182.243530,411.433380 178.402573,408.051849 
	C176.777161,406.620880 175.382568,404.554108 173.487823,403.868439 
	C165.973083,401.148926 165.572098,395.503662 165.763031,388.696747 
	C166.212662,372.666077 165.054230,356.776642 159.031860,341.595581 
	C157.509674,337.758514 157.802292,333.643219 159.589615,329.901581 
	C162.009323,324.836121 160.300583,321.441040 156.002945,318.445190 
	C148.764221,313.399170 141.748077,308.034729 134.540085,302.943268 
	C131.927231,301.097656 130.465210,298.806885 129.730774,295.703827 
	C127.472282,286.161560 125.121681,276.637299 122.571106,267.169556 
	C121.236977,262.217194 122.087891,257.232147 121.749214,252.271988 
	C121.303635,245.746262 120.440910,239.370987 117.609978,233.398376 
	C117.036278,232.188019 116.369293,231.001190 116.736633,229.596893 
	C119.313812,219.744629 117.777817,210.490509 112.748352,201.724182 
	C112.427788,201.165421 112.322495,200.483185 112.133492,199.908386 
	C116.240326,196.152863 116.240326,196.152863 114.852173,186.195358 
	C118.724472,186.779892 121.561180,189.018951 124.128311,191.464096 
	C134.645706,201.481644 139.148438,214.347061 141.320831,228.304276 
	C142.453323,235.580429 142.341095,242.893188 142.351166,250.214325 
	C142.357254,254.648392 143.683655,255.612656 147.815277,254.044205 
	C152.619781,252.220306 155.970108,249.038086 156.746078,243.635147 
	C160.578644,216.949677 161.673477,190.296463 155.436478,163.801834 
	C154.723984,160.775146 155.018677,158.838150 157.445679,156.876831 
	C163.251495,152.185043 166.451828,145.461716 170.274017,139.251129 
	C177.052567,143.985062 178.651215,143.583572 183.249390,135.748657 
	C184.616150,133.225021 185.712280,131.289993 186.808411,129.354965 
	C187.620697,128.820374 188.432999,128.285782 189.493866,127.587578 
	C191.926086,131.859055 190.555328,135.906006 189.643539,139.812225 
	C188.506088,144.685165 187.033661,149.666946 184.155212,153.685516 
	C178.293182,161.869476 179.014954,170.923462 179.496429,180.045166 
	C180.031433,190.180634 180.946350,200.303665 181.190323,210.444290 
	C181.362686,217.609329 181.905655,224.725189 182.584930,232.635757 
	C186.525436,225.683884 188.478546,218.607346 191.204788,211.881531 
	C195.017960,202.474152 198.691330,193.003967 202.134079,183.455917 
	C203.326248,180.149506 205.171417,177.715530 207.892197,175.599380 
	C216.051880,169.252975 223.104523,161.706558 230.160889,154.189041 
	C233.460953,155.532532 232.937057,162.766556 238.749710,159.271408 
	C242.105743,157.253433 243.097382,153.084702 246.684555,150.564697 
	C248.414093,157.327087 246.428925,163.062012 243.875183,168.593521 
	C241.480850,173.779785 237.997223,178.138779 233.466553,181.806824 
	C225.729446,188.070801 219.483521,195.148132 217.947342,205.848053 
	C216.637558,214.971024 213.646469,223.852615 211.433594,232.703278 
	C218.532043,236.025604 219.602325,235.615646 221.900818,229.247269 
	C225.008453,220.636917 228.241943,212.069168 231.167526,203.397491 
	C232.184540,200.382935 233.863525,198.187576 236.315796,196.293533 
	C245.674530,189.065247 254.960403,181.742676 264.285034,174.470154 
	C265.837708,173.259171 267.315399,171.666641 270.239319,173.138214 
	C274.471405,174.554214 277.200104,172.463333 280.076324,170.930710 
M190.607025,257.082458 
	C194.524796,259.442780 198.247833,259.441772 202.403702,255.970200 
	C194.020493,258.324280 191.011322,257.108337 186.411316,249.907227 
	C186.195740,253.007095 188.029572,254.856583 190.607025,257.082458 
M163.838165,259.980896 
	C170.720306,261.892090 174.036469,260.738556 176.055222,255.509399 
	C173.019424,260.658966 167.762436,258.568359 163.838165,259.980896 
M212.869644,263.528900 
	C216.904663,268.581757 221.327576,269.440552 225.676682,265.656860 
	C220.860825,267.127563 216.817825,266.310120 212.869644,263.528900 
z"/>
<path fill="#000000" opacity="1.000000" stroke="none" 
	d="
M225.144745,416.733734 
	C229.284851,421.306366 232.115829,420.009521 235.676758,416.029755 
	C243.470032,407.319885 253.028732,401.667450 265.268677,404.043213 
	C275.297119,405.989655 283.208069,411.742645 289.473206,419.774933 
	C295.615356,427.649567 299.542206,436.585022 302.159882,446.147430 
	C302.463745,447.257538 302.672119,448.429840 301.798218,450.045227 
	C233.572098,451.383270 165.070190,452.298431 96.245926,452.810028 
	C96.117737,448.896912 97.750473,446.343262 98.940216,443.697327 
	C104.021233,432.397125 110.344376,421.898956 118.477798,412.468231 
	C138.475037,389.281433 163.578613,393.028168 181.387085,412.811981 
	C183.810242,415.503967 185.941864,418.458374 188.476471,421.626251 
	C199.511566,410.613678 211.522064,408.304779 225.144745,416.733734 
z"/>
<path fill="#000000" opacity="1.000000" stroke="none" 
	d="
M186.918915,128.961395 
	C185.712280,131.289993 184.616150,133.225021 183.360992,135.396271 
	C182.052612,136.830414 180.936951,138.063171 179.744293,139.216309 
	C178.581284,140.340790 177.551697,142.032501 175.613480,141.435257 
	C173.599380,140.814606 172.943054,138.892929 172.855774,137.067825 
	C172.423767,128.034439 174.724777,119.294304 179.121948,111.790520 
	C181.451721,107.814758 186.524796,112.619415 190.366364,113.241577 
	C193.172211,113.695984 192.388779,116.057930 191.518723,118.029144 
	C189.977020,121.522064 188.521179,125.052872 186.918915,128.961395 
z"/>
<path fill="#000000" opacity="1.000000" stroke="none" 
	d="
M238.157379,158.411011 
	C234.136765,159.748978 233.246429,156.929886 233.109344,154.550186 
	C232.580841,145.376083 235.731201,136.956741 239.158279,128.655151 
	C239.560959,127.679726 240.598709,126.936623 241.588562,127.539429 
	C244.984680,129.607635 249.374481,129.058853 253.060364,132.171402 
	C249.012405,141.226135 245.782761,150.798569 238.157379,158.411011 
z"/>
<path fill="#000000" opacity="1.000000" stroke="none" 
	d="
M280.262695,170.667694 
	C277.200104,172.463333 274.471405,174.554214 270.562561,173.248932 
	C269.128387,169.731567 270.733978,166.927139 272.380188,164.228134 
	C275.256500,159.512405 278.923920,155.432709 282.827118,151.530228 
	C285.068420,149.289307 286.823090,148.825653 288.838013,151.744476 
	C289.558350,152.787949 290.871399,153.420090 291.907257,154.248337 
	C294.626709,156.422821 294.621521,158.472763 291.857819,160.714310 
	C287.983643,163.856567 284.245453,167.166473 280.262695,170.667694 
z"/>
<path fill="#000000" opacity="1.000000" stroke="none" 
	d="
M236.642242,69.242836 
	C232.707321,69.612122 233.636612,72.538345 233.333206,74.832077 
	C233.110947,76.512352 233.870377,78.956757 231.117218,79.027367 
	C227.920288,79.109352 228.936462,76.385109 228.673019,74.601723 
	C228.576920,73.951241 228.652328,73.275345 228.650452,72.611046 
	C228.625671,63.820175 231.825378,61.497757 240.327423,64.455406 
	C241.906403,65.004700 242.972473,64.936607 244.475861,64.400162 
	C249.420975,62.635593 252.097595,64.565155 252.310959,69.841881 
	C252.391403,71.831093 252.353027,73.828438 252.285202,75.819229 
	C252.234711,77.302101 252.289658,78.983742 250.145477,79.075790 
	C248.032639,79.166473 247.823120,77.606644 247.731003,76.050133 
	C247.652573,74.724770 247.677856,73.393372 247.604523,72.067566 
	C247.528137,70.686432 247.252411,69.141106 245.624847,69.062042 
	C243.667755,68.966965 243.365448,70.681885 243.221313,72.206268 
	C243.080872,73.691750 243.108734,75.192604 242.988007,76.680649 
	C242.865219,78.194084 242.099091,79.185646 240.472015,79.172386 
	C238.861832,79.159256 238.189133,78.173744 237.930115,76.670624 
	C237.515076,74.262032 238.539886,71.656128 236.642242,69.242836 
z"/>
<path fill="#000000" opacity="1.000000" stroke="none" 
	d="
M100.569916,187.395218 
	C98.777710,185.024841 96.689857,183.250763 96.008713,180.271790 
	C98.858269,178.556244 100.242020,175.193436 104.030968,173.890274 
	C108.276314,179.436340 112.062813,185.237381 114.786232,191.697037 
	C115.364998,193.069809 115.759270,194.710495 114.404335,195.870270 
	C113.090370,196.995010 111.543556,196.459595 110.171844,195.804626 
	C106.306824,193.959167 103.701050,190.638474 100.569916,187.395218 
z"/>
<path fill="#000000" opacity="1.000000" stroke="none" 
	d="
M97.766983,58.976692 
	C102.276566,65.364632 100.458969,70.636276 93.380707,72.207649 
	C91.169640,72.698494 90.199409,73.493019 90.111336,75.692719 
	C90.043594,77.384605 89.767555,79.214630 87.452431,79.138565 
	C84.803619,79.051544 84.914749,76.935257 84.889259,75.127602 
	C84.830704,70.974243 85.057045,66.809303 84.825951,62.668129 
	C84.602852,58.670135 86.317436,57.272987 90.123718,57.630291 
	C92.582542,57.861103 95.133133,57.360306 97.766983,58.976692 
M92.927246,67.253670 
	C94.911156,66.138054 95.510880,64.736755 93.543549,63.118999 
	C92.610718,62.351925 91.154465,62.087929 90.629562,63.397717 
	C89.987747,64.999229 89.470573,67.022583 92.927246,67.253670 
z"/>
<path fill="#000000" opacity="1.000000" stroke="none" 
	d="
M310.695953,78.583748 
	C306.571564,79.529160 302.658356,80.332230 300.543121,75.797218 
	C298.917358,72.311714 299.017975,68.685577 301.837250,65.622177 
	C304.116180,63.145908 307.264709,63.764851 309.866913,63.797161 
	C310.234833,63.300884 310.346893,63.178867 310.426239,63.038372 
	C311.543121,61.060566 308.877228,56.657421 313.328033,57.094101 
	C316.736084,57.428467 315.137268,61.111832 315.267548,63.308830 
	C315.512268,67.434479 315.274445,71.586563 315.326782,75.726517 
	C315.367523,78.949150 313.993103,79.960930 310.695953,78.583748 
M308.733673,74.131134 
	C310.268677,73.108307 311.223877,71.812737 310.041351,70.023758 
	C309.274506,68.863647 308.084991,68.216949 306.624084,68.889442 
	C305.354614,69.473831 304.284698,70.379051 304.555267,71.900002 
	C304.890472,73.784439 306.138184,74.699722 308.733673,74.131134 
z"/>
<path fill="#000000" opacity="1.000000" stroke="none" 
	d="
M257.395508,79.082268 
	C254.122971,72.310684 256.149750,65.347755 255.895630,58.515137 
	C255.852509,57.355919 256.837341,56.879723 257.985809,56.888813 
	C259.409302,56.900082 260.119598,57.643097 260.214447,59.012012 
	C260.339264,60.813908 260.432617,62.617985 260.541138,64.448723 
	C268.873505,62.766186 273.192902,66.875168 270.957458,74.127487 
	C269.755859,78.025719 267.052826,80.195778 263.032501,78.958565 
	C261.029449,78.342148 259.521210,79.302132 257.395508,79.082268 
M266.523315,71.517914 
	C265.917633,68.825645 264.392853,67.807854 261.926788,69.349609 
	C260.303772,70.364296 259.794830,72.016159 261.353760,73.472054 
	C263.564301,75.536507 265.180664,74.351379 266.523315,71.517914 
z"/>
<path fill="#000000" opacity="1.000000" stroke="none" 
	d="
M207.956512,76.103615 
	C208.107147,77.843117 207.652863,78.750969 206.286926,79.147163 
	C204.425949,79.686943 194.114227,79.212349 191.079880,78.222801 
	C192.739609,72.406487 198.007156,68.732903 200.461990,63.469009 
	C198.383209,61.741726 196.283066,62.581158 194.382690,62.292690 
	C192.860336,62.061615 191.854156,61.468979 191.968658,59.766392 
	C192.068192,58.286461 193.104568,57.793308 194.365524,57.789055 
	C198.813446,57.774044 203.292160,57.199932 208.314957,58.319317 
	C206.984695,64.677032 201.697647,68.348824 198.986694,73.744125 
	C201.669388,75.866127 205.322220,73.427338 207.956512,76.103615 
z"/>
<path fill="#000000" opacity="1.000000" stroke="none" 
	d="
M279.484619,63.834709 
	C286.656128,63.706318 290.384674,66.926834 289.854767,72.366631 
	C289.409912,76.933243 285.152161,79.986130 280.094330,79.246300 
	C276.208710,78.677948 273.699890,76.363602 273.222961,72.494858 
	C272.683350,68.117943 274.942535,65.284828 279.484619,63.834709 
M282.759979,74.224174 
	C284.543396,73.043671 285.248535,71.530830 283.830597,69.681305 
	C283.114777,68.747597 281.983643,68.199997 280.751465,68.664757 
	C279.443512,69.158081 278.445312,70.110992 278.463043,71.586021 
	C278.491516,73.948883 280.017365,74.632500 282.759979,74.224174 
z"/>
<path fill="#000000" opacity="1.000000" stroke="none" 
	d="
M141.261047,66.445969 
	C144.337524,63.366718 147.665146,62.808399 151.075775,64.539268 
	C153.899460,65.972267 154.645981,68.634087 154.064819,71.718086 
	C151.207199,73.132065 148.179596,72.142365 145.095428,72.619736 
	C147.210846,75.791199 149.921432,73.568474 152.466370,74.210793 
	C153.916763,77.118752 152.652023,78.706337 149.663269,79.162537 
	C146.469879,79.649963 143.190781,79.573105 141.110977,76.597481 
	C138.915131,73.455849 139.140335,70.070068 141.261047,66.445969 
z"/>
<path fill="#000000" opacity="1.000000" stroke="none" 
	d="
M124.435593,63.930656 
	C129.347366,66.965515 130.872864,71.301651 128.808533,75.324501 
	C126.997276,78.854179 121.946411,80.414154 117.942123,78.680626 
	C114.099182,77.016953 112.281425,72.875473 113.793152,68.687500 
	C115.565079,63.778713 119.644196,63.395107 124.435593,63.930656 
M121.493507,68.515671 
	C119.431282,68.942184 118.206596,70.136772 118.511871,72.308090 
	C118.723473,73.813164 119.942574,74.456085 121.384033,74.526474 
	C122.657463,74.588654 123.677757,73.949104 124.185738,72.840508 
	C125.164444,70.704659 124.125015,69.403603 121.493507,68.515671 
z"/>
<path fill="#000000" opacity="1.000000" stroke="none" 
	d="
M225.934021,72.670654 
	C223.724167,78.238815 220.814697,80.145264 215.984940,79.198196 
	C212.422379,78.499611 209.934982,76.567902 209.665939,72.570900 
	C209.319244,67.420052 211.987427,64.104568 216.891525,63.700333 
	C222.538956,63.234833 225.152481,65.693802 225.934021,72.670654 
M215.746704,73.785629 
	C217.609756,75.063278 219.233597,74.719025 220.361008,72.845184 
	C220.979843,71.816650 220.895081,70.535927 220.016159,69.609230 
	C219.046677,68.587067 217.782928,68.069870 216.442535,68.868919 
	C214.657104,69.933273 213.763550,71.344612 215.746704,73.785629 
z"/>
<path fill="#000000" opacity="1.000000" stroke="none" 
	d="
M180.092590,66.033752 
	C177.687759,69.385223 175.006287,72.025536 179.571747,75.734428 
	C181.225845,77.078201 179.696274,79.147797 177.323792,79.205101 
	C176.217789,79.231819 174.950333,79.039993 174.016098,78.498535 
	C171.228134,76.882645 169.533371,64.950546 171.513641,62.362057 
	C173.533249,59.722157 175.404114,58.573727 177.274963,62.431580 
	C177.922043,63.765923 180.065735,63.769249 180.092590,66.033752 
z"/>
<path fill="#000000" opacity="1.000000" stroke="none" 
	d="
M132.066620,70.139893 
	C132.192047,68.362511 132.246048,67.038872 132.450134,65.738800 
	C132.660400,64.399300 133.537064,63.784466 134.905533,63.851772 
	C136.301559,63.920433 137.064911,64.695648 137.125778,66.021545 
	C137.360611,71.137856 137.784424,76.292313 136.845047,81.349617 
	C136.331863,84.112427 134.463242,86.135223 131.352127,86.206085 
	C128.811737,86.263947 127.885902,84.716469 128.065353,82.245430 
	C134.586075,80.166367 131.170731,74.658531 132.066620,70.139893 
z"/>
<path fill="#000000" opacity="1.000000" stroke="none" 
	d="
M165.571198,79.024162 
	C158.818146,79.246620 155.453888,76.377266 155.716141,71.086250 
	C155.934525,66.680298 159.658340,63.422775 164.126511,63.721397 
	C166.885162,63.905762 168.582306,64.978386 167.864029,68.351906 
	C165.589523,69.149376 161.353241,67.412064 161.434433,71.618614 
	C161.512177,75.647034 165.208511,74.214890 167.589447,74.317223 
	C168.861038,76.619598 167.736069,77.878998 165.571198,79.024162 
z"/>
<path fill="#000000" opacity="1.000000" stroke="none" 
	d="
M107.342827,74.356674 
	C107.053894,76.573128 107.981392,79.300529 104.743217,79.037315 
	C102.041176,78.817680 102.853127,76.385590 102.699867,74.719093 
	C102.563736,73.238869 102.652267,71.737114 102.657661,70.244919 
	C102.679749,64.138161 105.364952,62.126987 111.085175,63.881073 
	C111.992264,64.159233 112.511375,64.724464 112.663383,65.580185 
	C112.892975,66.872719 112.472878,67.905739 111.093597,68.247459 
	C108.074394,68.995491 107.426308,71.265205 107.342827,74.356674 
z"/>
<path fill="#000000" opacity="1.000000" stroke="none" 
	d="
M292.166321,77.439484 
	C291.974457,73.713608 291.874634,70.413490 291.889160,67.113876 
	C291.897034,65.329742 292.388275,63.763622 294.652252,63.832287 
	C296.632080,63.892334 297.065002,65.296303 297.089722,66.896927 
	C297.135681,69.869095 297.292969,72.857063 297.060181,75.811371 
	C296.797424,79.145981 295.260468,80.352829 292.166321,77.439484 
z"/>
<path fill="#000000" opacity="1.000000" stroke="none" 
	d="
M292.034210,59.862137 
	C292.434601,56.847347 293.981537,56.102596 296.119751,57.516453 
	C297.543304,58.457752 297.567566,60.165245 296.330963,61.334755 
	C294.560577,63.009098 293.114807,62.235672 292.034210,59.862137 
z"/>
<path fill="#000000" opacity="1.000000" stroke="none" 
	d="
M134.109833,62.115376 
	C131.957230,60.438511 131.354202,58.695164 133.637726,57.176937 
	C134.822433,56.389278 136.448837,56.615082 137.009567,58.098705 
	C137.847977,60.316963 137.286743,62.048996 134.109833,62.115376 
z"/>
</svg>